<svg xmlns="http://www.w3.org/2000/svg" viewBox="0 0 420 580" role="img" aria-labelledby="title desc">
  <title id="title">L'éclair du Français - Projet 1</title>
  <desc id="desc">Couverture du livre L'éclair du Français, Projet 1, Petite section, 3/4 ans.</desc>
  <defs>
    <linearGradient id="bg" x1="0" x2="1" y1="0" y2="1">
      <stop offset="0" stop-color="#dceff3"/>
      <stop offset="0.55" stop-color="#eef7ef"/>
      <stop offset="1" stop-color="#f7b33d"/>
    </linearGradient>
    <linearGradient id="road" x1="0" x2="1" y1="0" y2="1">
      <stop offset="0" stop-color="#f8b133"/>
      <stop offset="1" stop-color="#ee7f24"/>
    </linearGradient>
    <filter id="shadow" x="-20%" y="-20%" width="140%" height="140%">
      <feDropShadow dx="0" dy="8" stdDeviation="8" flood-color="#8b5e34" flood-opacity="0.25"/>
    </filter>
  </defs>
  <rect width="420" height="580" rx="10" fill="url(#bg)"/>
  <rect x="14" y="12" width="392" height="556" rx="8" fill="none" stroke="#ffffff" stroke-opacity="0.65" stroke-width="3"/>
  <text x="24" y="34" font-family="Georgia, serif" font-style="italic" font-size="21" fill="#1f2937">Collection</text>
  <circle cx="360" cy="58" r="41" fill="#f8fbff" stroke="#ef3f91" stroke-width="1.4" stroke-dasharray="6 4"/>
  <text x="360" y="52" text-anchor="middle" font-family="Arial, sans-serif" font-weight="800" font-size="17" fill="#08a4d8">Projet</text>
  <text x="360" y="83" text-anchor="middle" font-family="Arial, sans-serif" font-weight="900" font-size="40" fill="#27328b">1</text>

  <text x="210" y="140" text-anchor="middle" font-family="Brush Script MT, Segoe Script, cursive" font-weight="700" font-size="92" fill="#0589c6">L&apos;éclair</text>
  <text x="184" y="202" text-anchor="middle" font-family="Arial, sans-serif" font-weight="900" font-size="38" fill="#f0188d">du</text>
  <text x="294" y="197" text-anchor="middle" font-family="Brush Script MT, Segoe Script, cursive" font-weight="700" font-size="48" fill="#f0188d">Français</text>

  <g opacity="0.96" filter="url(#shadow)">
    <polygon points="70,230 118,198 167,230 167,404 70,404" fill="#e95963"/>
    <polygon points="86,244 121,220 151,244 151,404 86,404" fill="#f4a51c"/>
    <rect x="102" y="258" width="26" height="33" fill="#00a7d8"/>
    <rect x="132" y="258" width="26" height="33" fill="#00a7d8"/>
    <rect x="102" y="302" width="26" height="33" fill="#00a7d8"/>
    <rect x="132" y="302" width="26" height="33" fill="#00a7d8"/>
    <polygon points="276,232 340,198 392,232 392,404 276,404" fill="#f0a825"/>
    <polygon points="292,247 340,221 377,247 377,404 292,404" fill="#ffd35b"/>
    <rect x="309" y="278" width="31" height="35" fill="#0fb8dc"/>
    <rect x="349" y="278" width="31" height="35" fill="#0fb8dc"/>
    <circle cx="354" cy="254" r="18" fill="#fff8df" stroke="#f06b78" stroke-width="2"/>
    <line x1="354" y1="254" x2="354" y2="244" stroke="#f06b78" stroke-width="2"/>
    <line x1="354" y1="254" x2="365" y2="254" stroke="#f06b78" stroke-width="2"/>
  </g>

  <path d="M-18 580 C70 446 116 375 210 336 C293 301 352 398 437 580 Z" fill="url(#road)"/>
  <path d="M76 580 C125 456 162 390 210 336 C248 398 303 474 357 580 Z" fill="#f49b23"/>
  <path d="M191 238 C212 219 235 221 256 239 C232 245 213 245 191 238 Z" fill="#ffffff"/>
  <path d="M172 249 C202 227 231 229 256 249 C226 255 202 255 172 249 Z" fill="#e8f5ff"/>
  <path d="M255 249 C279 230 309 232 331 250 C304 256 280 256 255 249 Z" fill="#ffffff"/>

  <text x="194" y="268" text-anchor="middle" font-family="Comic Sans MS, Arial, sans-serif" font-weight="900" font-size="54" fill="#8bc543" transform="rotate(12 194 268)">2</text>
  <text x="277" y="270" text-anchor="middle" font-family="Comic Sans MS, Arial, sans-serif" font-weight="900" font-size="54" fill="#d82d91" transform="rotate(-12 277 270)">1</text>

  <g transform="translate(20 356)">
    <rect x="0" y="0" width="52" height="52" rx="7" fill="#f5c542" stroke="#de8f22" stroke-width="3"/>
    <text x="26" y="36" text-anchor="middle" font-family="Arial, sans-serif" font-weight="900" font-size="30" fill="#e83d65">A</text>
    <rect x="8" y="48" width="52" height="52" rx="7" fill="#e94553" stroke="#b92b41" stroke-width="3"/>
    <text x="34" y="84" text-anchor="middle" font-family="Arial, sans-serif" font-weight="900" font-size="30" fill="#ffe269">B</text>
    <rect x="16" y="96" width="52" height="52" rx="7" fill="#6abf4b" stroke="#3f8f36" stroke-width="3"/>
    <text x="42" y="133" text-anchor="middle" font-family="Arial, sans-serif" font-weight="900" font-size="30" fill="#f6e45b">C</text>
  </g>

  <g transform="translate(98 420)">
    <ellipse cx="42" cy="92" rx="54" ry="16" fill="#d17029" opacity="0.25"/>
    <path d="M43 0 L85 93 L0 93 Z" fill="#f15d2a"/>
    <path d="M43 18 L68 74 L18 74 Z" fill="#ffd75a"/>
    <path d="M43 37 L55 63 L31 63 Z" fill="#39a6dc"/>
  </g>

  <g transform="translate(153 357)">
    <circle cx="55" cy="28" r="29" fill="#f2c16b"/>
    <circle cx="42" cy="22" r="7" fill="#f2c16b"/>
    <circle cx="67" cy="22" r="7" fill="#f2c16b"/>
    <circle cx="47" cy="29" r="9" fill="#ffffff" opacity="0.9"/>
    <circle cx="64" cy="29" r="9" fill="#ffffff" opacity="0.9"/>
    <circle cx="47" cy="29" r="3" fill="#13506f"/>
    <circle cx="64" cy="29" r="3" fill="#13506f"/>
    <path d="M36 58 C50 72 69 71 82 58 L83 118 L33 118 Z" fill="#74b76c"/>
    <rect x="26" y="76" width="60" height="26" rx="4" fill="#f7c844" transform="rotate(-13 56 89)"/>
    <line x1="36" y1="86" x2="76" y2="77" stroke="#99621f" stroke-width="2"/>
  </g>

  <g transform="translate(277 352)">
    <circle cx="39" cy="36" r="27" fill="#ffd0b6"/>
    <path d="M15 30 C15 5 64 5 64 30 C55 16 25 16 15 30 Z" fill="#1f1d2c"/>
    <circle cx="12" cy="23" r="13" fill="#1f1d2c"/>
    <circle cx="66" cy="23" r="13" fill="#1f1d2c"/>
    <circle cx="31" cy="37" r="3" fill="#202a44"/>
    <circle cx="48" cy="37" r="3" fill="#202a44"/>
    <path d="M33 49 C38 54 44 54 49 49" fill="none" stroke="#a14f49" stroke-width="2"/>
    <path d="M22 65 L57 65 L71 126 L7 126 Z" fill="#42a9da"/>
    <rect x="31" y="72" width="17" height="40" fill="#ffffff" opacity="0.9"/>
  </g>

  <g transform="translate(323 407)">
    <circle cx="50" cy="50" r="46" fill="#43b9e8" stroke="#3b6f9f" stroke-width="5"/>
    <path d="M15 42 C28 38 34 23 47 25 C42 40 59 40 62 54 C48 54 44 70 30 68 C30 55 18 55 15 42 Z" fill="#5cbd62"/>
    <path d="M68 23 C83 31 93 45 94 62 C80 57 72 48 68 23 Z" fill="#5cbd62"/>
  </g>

  <rect x="325" y="476" width="78" height="58" rx="10" fill="#ffffff" stroke="#d58a20" stroke-width="4"/>
  <text x="364" y="501" text-anchor="middle" font-family="Arial, sans-serif" font-weight="900" font-size="27" fill="#12a84a">3/4</text>
  <text x="364" y="524" text-anchor="middle" font-family="Arial, sans-serif" font-weight="900" font-size="21" fill="#12a84a">ans</text>
  <text x="64" y="548" font-family="Brush Script MT, Segoe Script, cursive" font-size="16" fill="#ffffff">Version interactive QR</text>
  <text x="312" y="558" font-family="Brush Script MT, Segoe Script, cursive" font-weight="700" font-size="25" fill="#1d1d1d">Petite section</text>
</svg>
